<?xml version="1.0" encoding="UTF-8"?> <svg xmlns="http://www.w3.org/2000/svg" id="Layer_1" data-name="Layer 1" viewBox="0 0 1200 190"><defs><style> .cls-1 { fill: #12a085; } .cls-2 { fill: #1e0d32; } .cls-3 { fill: #19e5c0; } </style></defs><path class="cls-2" d="M298.539,57.037c0-3.133-2.531-5.674-5.659-5.693h-10.328c-3.128,.006-5.662,2.534-5.681,5.659v81.769c-.007,3.139-2.553,5.681-5.694,5.681v.002h-83.347v-.002c-3.145,0-5.695-2.55-5.695-5.695h0V57.034h0c0-3.117-2.505-5.645-5.611-5.69h-10.457c-3.094,.04-5.592,2.546-5.617,5.643v90.355c0,4.713,1.648,8.759,4.945,12.137,3.31,3.378,7.383,5.067,12.259,5.067h103.686c5.319,0,9.698-2.01,13.138-6.029,2.734-3.195,4.066-7.359,4.066-11.564V57.037h-.003Z"></path><path class="cls-2" d="M458.937,56.288c-3.378-3.296-7.424-4.945-12.137-4.945h-116.38c-3.145,.001-5.695,2.551-5.695,5.696v8.769c.033,3.065,2.486,5.545,5.539,5.626h106.369v.023c3.084,0,5.59,2.454,5.686,5.515v11.203c-.03,3.109-2.551,5.621-5.664,5.636h-96.85c-4.713,0-8.745,1.648-12.137,4.945-3.365,3.296-5.067,7.383-5.067,12.234v36.327c0,4.902,1.703,8.988,5.067,12.285,3.392,3.296,7.423,4.945,12.137,4.945h106.607c4.204,0,8.369-1.332,11.563-4.066,4.02-3.439,6.029-7.819,6.029-13.164V68.522c0-4.851-1.69-8.924-5.068-12.234Zm-16.617,82.471h0c0,3.145-2.55,5.695-5.695,5.695h0s0,0,0,0h-86.681c-3.118-.02-5.64-2.545-5.656-5.664v-20.704s0,0,0,0h.004c0-3.145,2.55-5.695,5.695-5.695h0s0,0,0,0h86.693c3.097,.026,5.602,2.523,5.642,5.617v20.75s0,0,0,0Z"></path><path class="cls-2" d="M604.736,77.131h0v81.724h0c0,3.117,2.505,5.645,5.611,5.69h10.457c3.094-.041,5.591-2.546,5.617-5.643V68.548c0-4.713-1.648-8.759-4.945-12.137-3.31-3.378-7.383-5.067-12.259-5.067h-103.686c-5.319,0-9.698,2.01-13.138,6.029-2.734,3.194-4.066,7.359-4.066,11.563v89.917h.002c0,3.133,2.531,5.673,5.659,5.693h10.329c3.128-.006,5.663-2.535,5.681-5.66V77.113c.01-3.137,2.555-5.677,5.694-5.677v-.002h83.347s0,0,0,0v.002c3.145,0,5.695,2.55,5.695,5.695h0Z"></path><path class="cls-2" d="M738.869,57.04c0-3.145-2.549-5.694-5.694-5.694v-.002s0,0,0,0h-35.877c-2.809-.016-5.082-2.29-5.095-5.1V5.685c-.003-3.117-2.511-5.644-5.619-5.685h-10.181c-3.113,.028-5.63,2.553-5.641,5.671V46.218s0,0,0,0h0c0,2.831-2.295,5.125-5.125,5.125h0s0,0,0,0h-17.946c-3.136,0-5.679,2.537-5.693,5.67v8.725s0,0,0,0h.001c0,3.145,2.55,5.695,5.695,5.695h0s0,0,0,0h17.981c2.786,.018,5.042,2.258,5.088,5.038v82.377c0,3.145,2.55,5.695,5.695,5.695v.002h10.134c3.097-.044,5.596-2.557,5.611-5.661V76.555h.003c0-2.804,2.252-5.079,5.046-5.121h36.034c3.051-.055,5.511-2.507,5.584-5.553v-8.841s0,0,0,0h0Z"></path><path class="cls-2" d="M759.083,159.601c3.378,3.296,7.424,4.945,12.137,4.945h116.38c3.145-.001,5.695-2.551,5.695-5.696v-8.769c-.033-3.065-2.486-5.545-5.539-5.626h-106.369v-.023c-3.084,0-5.59-2.454-5.686-5.515v-20.889c.031-3.109,2.551-5.621,5.665-5.636h96.85c4.713,0,8.745-1.648,12.137-4.945,3.365-3.296,5.067-7.383,5.067-12.259v-26.641c0-4.876-1.703-8.963-5.067-12.259-3.392-3.296-7.423-4.945-12.137-4.945h-106.607c-4.204,0-8.369,1.332-11.563,4.066-4.02,3.439-6.029,7.819-6.029,13.074v78.794c0,4.941,1.689,9.014,5.067,12.324Zm16.618-82.471h0c0-3.145,2.55-5.695,5.695-5.695h0s0,0,0,0h86.681c3.118,.02,5.64,2.545,5.656,5.664v11.01s0,0,0,0h-.003c0,3.145-2.55,5.695-5.695,5.695h0s0,0,0,0h-86.693c-3.097-.026-5.602-2.523-5.642-5.617v-11.056s0,0,0,0Z"></path><path class="cls-2" d="M1193.27,56.288c-3.378-3.296-7.424-4.945-12.137-4.945h-116.38c-3.145,.001-5.695,2.551-5.695,5.696v8.769c.033,3.065,2.486,5.545,5.539,5.626h106.369s0,.023,0,.023c3.084,0,5.59,2.454,5.686,5.515v11.195c-.031,3.109-2.551,5.621-5.665,5.636h-96.85c-4.713,0-8.745,1.648-12.137,4.945-3.365,3.296-5.067,7.383-5.067,12.259l.197,36.335c0,4.876,1.703,8.963,5.067,12.259,3.392,3.296,7.423,4.945,12.137,4.945h106.607c4.204,0,8.369-1.332,11.563-4.066,4.02-3.439,6.029-7.819,6.029-13.138l-.197-78.794c0-4.876-1.689-8.949-5.067-12.259Zm-16.421,82.553h0c0,3.145-2.55,5.695-5.695,5.695h0s0,0,0,0h-86.681c-3.118-.02-5.64-2.545-5.656-5.664l-.197-20.768s0,0,0,0h.003c0-3.145,2.55-5.695,5.695-5.695h0s0,0,0,0h86.693c3.097,.026,5.602,2.523,5.642,5.617l.197,20.814s0,0,0,0Z"></path><path class="cls-2" d="M1042.89,156.999v-.002s-47.795-46.115-47.795-46.115l.004-.003c-2.027-1.987-2.043-5.194-.056-7.205l46.633-44.776h0c2.23-2.012,2.82-4.939,1.319-6.538-.657-.7-1.605-1.029-2.651-1.01v-.005h-15.85c-.952,.004-1.953,.205-2.924,.626-.872,.378-1.627,.891-2.239,1.49l-.003-.003-38.099,37.143c-2.047,1.855-5.233,1.82-7.232-.115l-37.779-37.026-.002,.002c-.611-.598-1.367-1.112-2.238-1.49-.975-.422-1.981-.624-2.937-.627h-16.592v.005c-1.046-.019-1.994,.311-2.651,1.01-1.407,1.499-.977,4.165,.919,6.15l46.819,45.339c2.04,2.007,2.038,5.255-.007,7.259l.004,.003-47.998,46.297c-1.876,1.982-2.299,4.632-.898,6.125,.657,.7,1.605,1.029,2.651,1.01v.004h15.644c.959-.002,1.969-.204,2.948-.629,.872-.378,1.627-.891,2.238-1.49h0s39.287-38.317,39.287-38.317c2.056-1.852,5.252-1.806,7.245,.148h0s39.139,38.173,39.139,38.173l.002-.002c.611,.598,1.367,1.112,2.238,1.49,.975,.422,1.981,.624,2.936,.626h16.611c1.037,.014,1.978-.314,2.63-1.009,1.501-1.599,.911-4.526-1.319-6.538Z"></path><g><polygon class="cls-1" points="73.001 132.715 72.999 144.455 84.645 144.455 73.001 132.715"></polygon><path class="cls-2" d="M130.426,55.347c-3.134-2.691-7.224-4.004-11.354-4.004H17.282c-4.134,0-8.229,1.312-11.368,4.003-3.946,3.383-5.914,7.683-5.914,12.896v79.404c0,5.214,1.966,9.507,5.908,12.89,3.139,2.694,7.236,4.009,11.373,4.009H119.073c4.133,0,8.225-1.315,11.359-4.009,3.936-3.383,5.906-7.676,5.906-12.89V68.243c0-5.212-1.972-9.513-5.912-12.896ZM26.79,144.455v-.004c-3.125,0-5.658-2.533-5.658-5.658h-.003s.166-61.698,.166-61.698c0,0,0,0,0,0h.04c0-3.113,2.514-5.641,5.627-5.658v-.002s0,0,0,0H109.64c3.004,.136,5.4,2.607,5.4,5.645h.003l-.166,67.376s0,0,0,0H26.79s0,0,0,0Z"></path><path class="cls-3" d="M151.455,189.15h-19.454c-1.942,0-3.804-.777-5.17-2.157l-53.665-54.105h30.015l50.752,50.218c2.248,2.217,.678,6.044-2.479,6.044Z"></path></g></svg> 