<svg xmlns="http://www.w3.org/2000/svg" xmlns:xlink="http://www.w3.org/1999/xlink" width="1024" zoomAndPan="magnify" viewBox="0 0 768 767.999994" height="1024" preserveAspectRatio="xMidYMid meet" version="1.0"><defs><clipPath id="f8b77bec52"><path d="M 163.222656 25 L 604.773438 25 L 604.773438 745 L 163.222656 745 Z M 163.222656 25 " clip-rule="nonzero"/></clipPath><clipPath id="26f8d14fef"><path d="M 163.023438 25 L 604.773438 25 L 604.773438 745 L 163.023438 745 Z M 163.023438 25 " clip-rule="nonzero"/></clipPath></defs><g clip-path="url(#f8b77bec52)"><path fill="#ffffff" d="M 350.578125 600.964844 C 355.164062 598.097656 360.320312 594.660156 364.902344 591.792969 C 370.058594 587.78125 375.214844 583.195312 380.371094 579.183594 L 380.945312 578.035156 C 386.675781 572.878906 392.976562 567.71875 399.851562 561.414062 C 405.582031 556.253906 412.457031 549.949219 418.1875 543.644531 C 423.917969 537.914062 429.074219 531.609375 433.65625 525.875 L 439.386719 519 C 441.679688 516.132812 444.542969 512.695312 446.835938 508.679688 C 449.128906 505.242188 451.992188 500.65625 454.855469 496.070312 C 456.003906 493.777344 457.148438 492.058594 458.292969 489.765625 C 459.441406 487.472656 460.585938 485.179688 462.304688 482.886719 C 465.171875 478.300781 467.460938 473.714844 469.753906 469.703125 C 473.765625 460.535156 477.777344 450.789062 481.214844 441.617188 C 483.503906 434.738281 485.796875 427.863281 487.515625 421.558594 C 488.660156 416.972656 489.808594 412.957031 491.527344 408.375 C 492.097656 406.082031 492.671875 404.359375 493.816406 402.066406 C 494.964844 398.628906 496.109375 395.191406 497.257812 391.75 C 498.402344 387.164062 499.546875 382.578125 500.695312 378.566406 L 501.839844 375.128906 L 502.984375 371.6875 C 504.132812 367.105469 505.277344 362.519531 506.421875 357.359375 C 507.570312 353.347656 508.140625 348.761719 508.714844 344.75 L 508.714844 344.175781 C 509.289062 339.019531 510.433594 332.710938 511.007812 326.980469 C 511.007812 324.6875 511.578125 321.820312 511.578125 319.527344 C 511.578125 316.664062 512.152344 313.222656 512.152344 310.359375 C 513.296875 299.46875 513.871094 287.429688 513.871094 273.675781 L 513.871094 271.382812 C 513.871094 261.0625 513.871094 250.171875 513.296875 238.710938 C 513.296875 235.269531 512.726562 231.832031 512.726562 228.390625 C 512.726562 226.101562 512.152344 224.378906 512.152344 222.085938 L 512.152344 219.792969 C 512.152344 215.78125 511.578125 212.34375 511.578125 208.332031 C 511.007812 204.890625 510.433594 200.878906 509.859375 197.441406 C 509.289062 195.148438 509.289062 192.28125 508.714844 189.988281 C 508.140625 187.121094 508.140625 184.257812 507.570312 181.964844 C 506.996094 178.523438 506.996094 175.085938 506.421875 171.648438 C 505.851562 166.488281 504.703125 161.328125 503.558594 156.171875 L 502.414062 151.585938 L 501.839844 148.71875 C 500.695312 142.988281 499.546875 136.683594 497.828125 130.378906 C 496.683594 124.644531 494.964844 118.914062 493.246094 112.035156 C 492.097656 107.449219 490.378906 103.4375 489.234375 99.425781 C 488.660156 97.707031 488.089844 95.984375 487.515625 94.265625 C 485.222656 88.535156 483.503906 82.230469 481.785156 76.496094 C 480.640625 73.058594 480.066406 69.046875 478.921875 65.605469 L 478.347656 63.3125 C 477.777344 62.167969 477.777344 61.023438 477.777344 59.875 C 477.777344 53.570312 482.359375 47.265625 488.089844 44.972656 C 489.234375 43.824219 490.953125 42.679688 492.671875 42.105469 C 498.402344 39.8125 504.703125 37.519531 511.578125 35.226562 C 514.445312 34.082031 517.308594 32.933594 519.601562 32.363281 L 521.894531 31.214844 C 524.183594 30.070312 526.476562 29.496094 528.769531 28.921875 C 531.058594 28.351562 533.351562 27.203125 536.21875 26.058594 C 541.375 23.765625 547.675781 25.484375 552.261719 30.070312 L 554.550781 31.789062 C 556.84375 33.507812 557.988281 35.800781 559.136719 38.667969 L 560.28125 40.386719 C 561.425781 43.253906 563.144531 46.117188 564.292969 48.984375 C 565.4375 51.851562 566.582031 55.289062 567.730469 57.582031 C 568.300781 59.875 569.449219 62.742188 570.59375 65.035156 L 571.742188 68.472656 C 572.886719 71.339844 573.460938 74.203125 574.03125 76.496094 C 574.605469 77.644531 574.605469 78.789062 575.179688 79.9375 C 576.324219 83.949219 577.46875 87.960938 578.617188 91.972656 C 580.335938 97.132812 582.054688 102.863281 583.199219 108.023438 C 584.34375 112.609375 585.492188 117.195312 586.636719 121.78125 C 587.785156 127.511719 589.503906 133.242188 591.222656 138.976562 C 594.660156 149.867188 595.804688 161.328125 597.523438 172.21875 L 598.097656 175.660156 C 598.667969 178.523438 598.667969 181.964844 599.242188 184.832031 C 600.386719 192.28125 601.535156 200.304688 602.105469 208.332031 L 602.105469 210.050781 C 602.679688 219.222656 603.824219 228.964844 603.824219 238.136719 C 603.824219 241.003906 603.824219 244.441406 603.824219 247.308594 C 603.824219 253.039062 603.824219 259.34375 604.398438 265.078125 L 604.398438 268.515625 C 604.398438 271.953125 604.972656 275.394531 604.972656 278.832031 C 604.972656 279.40625 604.972656 279.40625 604.972656 279.980469 C 604.972656 284.566406 604.972656 289.722656 604.398438 295.457031 C 603.824219 305.199219 602.679688 314.371094 602.105469 324.113281 L 601.535156 328.128906 C 600.960938 335.578125 600.386719 341.882812 599.242188 348.1875 C 598.097656 352.773438 597.523438 357.359375 596.378906 362.519531 L 594.660156 365.957031 C 594.085938 368.824219 593.511719 371.117188 592.941406 373.980469 C 591.222656 383.152344 588.929688 392.898438 586.636719 402.066406 C 583.773438 411.8125 580.90625 421.558594 578.042969 431.300781 C 577.46875 433.019531 576.898438 434.167969 576.324219 435.886719 C 568.875 458.8125 562 476.582031 553.980469 492.632812 C 549.394531 502.949219 544.238281 512.121094 539.082031 520.71875 C 537.9375 523.011719 536.21875 525.304688 535.070312 527.597656 C 533.925781 529.890625 532.777344 531.609375 531.632812 533.902344 C 528.769531 538.488281 525.902344 542.5 523.613281 546.511719 L 522.464844 548.230469 L 523.613281 546.511719 C 519.601562 552.816406 515.019531 558.546875 511.007812 564.28125 C 508.714844 567.144531 506.421875 570.011719 504.703125 572.878906 C 498.402344 581.476562 491.527344 590.074219 483.503906 599.246094 C 476.628906 607.269531 468.609375 614.722656 459.441406 623.320312 C 453.710938 629.050781 445.691406 635.929688 437.667969 643.378906 C 431.367188 649.113281 423.917969 654.84375 414.75 661.722656 C 409.59375 665.734375 404.4375 669.171875 399.28125 672.613281 L 392.976562 675.480469 L 391.257812 676.625 C 388.394531 678.917969 384.957031 680.636719 382.089844 682.929688 C 378.652344 685.222656 374.644531 686.941406 371.207031 689.234375 L 369.488281 689.808594 L 366.621094 691.527344 C 362.609375 693.820312 358.027344 696.113281 353.445312 698.40625 C 352.871094 698.980469 352.296875 698.980469 351.152344 699.550781 C 348.859375 700.699219 347.140625 701.84375 344.847656 702.417969 L 344.277344 702.417969 C 341.410156 703.566406 338.546875 705.285156 335.683594 707.003906 C 329.378906 710.441406 323.648438 713.308594 316.773438 716.175781 C 312.191406 717.894531 307.605469 719.042969 303.597656 720.761719 C 299.585938 721.90625 296.148438 723.054688 292.136719 724.773438 C 286.40625 727.066406 280.105469 728.210938 274.375 729.929688 L 272.082031 730.503906 C 269.21875 731.078125 266.925781 732.222656 264.0625 732.796875 C 258.90625 734.515625 253.175781 735.664062 247.445312 736.808594 C 245.726562 736.808594 244.582031 737.382812 242.863281 737.382812 C 241.71875 737.382812 240.570312 737.957031 239.425781 737.957031 L 238.277344 738.53125 C 236.558594 739.101562 234.839844 739.101562 233.695312 739.675781 C 226.246094 741.394531 218.226562 742.542969 210.203125 743.6875 C 206.765625 744.261719 203.328125 744.261719 199.890625 744.261719 C 198.746094 744.261719 197.597656 744.261719 196.453125 744.261719 L 195.308594 744.261719 C 194.734375 744.261719 194.160156 744.261719 193.015625 744.261719 C 189.578125 744.261719 186.714844 743.6875 183.277344 742.542969 C 181.554688 741.96875 179.835938 740.820312 178.691406 739.101562 C 178.117188 738.53125 177.546875 738.53125 177.546875 737.957031 C 176.398438 736.808594 175.828125 735.664062 174.679688 734.515625 C 172.960938 732.222656 172.390625 729.929688 172.390625 727.066406 C 172.390625 725.917969 171.816406 724.773438 171.242188 723.625 C 170.671875 721.90625 170.097656 720.761719 170.097656 719.042969 C 169.523438 715.601562 168.378906 712.164062 167.804688 708.722656 L 167.234375 706.429688 C 166.660156 704.710938 166.085938 702.417969 166.085938 700.699219 C 166.085938 699.550781 165.515625 698.980469 165.515625 697.832031 L 165.515625 694.394531 C 165.515625 693.820312 164.941406 692.675781 164.941406 692.101562 C 164.367188 689.234375 163.222656 686.941406 163.222656 684.078125 C 163.222656 679.492188 164.367188 675.480469 167.234375 672.613281 C 169.523438 670.320312 171.816406 668.601562 175.253906 668.027344 C 176.398438 667.453125 177.546875 666.882812 178.691406 666.882812 C 182.703125 666.308594 186.140625 665.734375 190.152344 665.160156 C 191.871094 665.160156 193.589844 664.589844 195.878906 664.589844 C 201.609375 663.441406 207.339844 662.296875 214.214844 660.574219 C 219.945312 658.855469 226.246094 657.710938 234.839844 655.417969 C 241.71875 653.699219 248.59375 651.40625 254.894531 649.113281 C 256.613281 648.539062 257.761719 647.964844 259.480469 647.394531 L 266.355469 644.527344 C 273.230469 641.660156 280.105469 638.792969 287.554688 635.929688 C 292.136719 634.210938 296.722656 631.917969 301.304688 629.625 C 305.886719 627.332031 310.472656 624.464844 315.054688 622.171875 L 316.773438 621.027344 C 324.796875 616.441406 333.964844 611.28125 341.984375 606.125 C 343.703125 604.976562 347.140625 603.257812 350.578125 600.964844 Z M 350.578125 600.964844 " fill-opacity="1" fill-rule="nonzero"/></g><g clip-path="url(#26f8d14fef)"><path fill="#ffffff" d="M 417.414062 600.964844 C 412.832031 598.097656 407.675781 594.660156 403.089844 591.792969 C 397.933594 587.78125 392.777344 583.195312 387.621094 579.183594 L 387.050781 578.035156 C 381.320312 572.878906 375.015625 567.71875 368.140625 561.414062 C 362.410156 556.253906 355.535156 549.949219 349.808594 543.644531 C 344.078125 537.914062 338.921875 531.609375 334.335938 525.875 L 328.605469 519 C 326.316406 516.132812 323.449219 512.695312 321.160156 508.679688 C 318.867188 505.242188 316.003906 500.65625 313.136719 496.070312 C 311.992188 493.777344 310.84375 492.058594 309.699219 489.765625 C 308.554688 487.472656 307.40625 485.179688 305.6875 482.886719 C 302.824219 478.300781 300.53125 473.714844 298.242188 469.703125 C 294.230469 460.535156 290.21875 450.789062 286.78125 441.617188 C 284.488281 434.738281 282.199219 427.863281 280.480469 421.558594 C 279.332031 416.972656 278.1875 412.957031 276.46875 408.375 C 275.894531 406.082031 275.324219 404.359375 274.175781 402.066406 C 273.03125 398.628906 271.882812 395.191406 270.738281 391.75 C 269.59375 387.164062 268.445312 382.578125 267.300781 378.566406 L 266.15625 375.128906 L 265.007812 371.6875 C 263.863281 367.105469 262.71875 362.519531 261.570312 357.359375 C 260.425781 353.347656 259.851562 348.761719 259.28125 344.75 L 259.28125 344.175781 C 258.707031 339.019531 257.5625 332.710938 256.988281 326.980469 C 256.988281 324.6875 256.414062 321.820312 256.414062 319.527344 C 256.414062 316.664062 255.839844 313.222656 255.839844 310.359375 C 254.695312 299.46875 254.121094 287.429688 254.121094 273.675781 L 254.121094 271.382812 C 254.121094 261.0625 254.121094 250.171875 254.695312 238.710938 C 254.695312 235.269531 255.269531 231.832031 255.269531 228.390625 C 255.269531 226.101562 255.839844 224.378906 255.839844 222.085938 L 255.839844 219.792969 C 255.839844 215.78125 256.414062 212.34375 256.414062 208.332031 C 256.988281 204.890625 257.5625 200.878906 258.132812 197.441406 C 258.707031 195.148438 258.707031 192.28125 259.28125 189.988281 C 259.851562 187.121094 259.851562 184.257812 260.425781 181.964844 C 261 178.523438 261 175.085938 261.570312 171.648438 C 262.144531 166.488281 263.289062 161.328125 264.4375 156.171875 L 265.582031 151.585938 L 266.15625 148.71875 C 267.300781 142.988281 268.445312 136.683594 270.164062 130.378906 C 271.3125 124.644531 273.03125 118.914062 274.75 112.035156 C 275.894531 107.449219 277.613281 103.4375 278.761719 99.425781 C 279.332031 97.707031 279.90625 95.984375 280.480469 94.265625 C 282.769531 88.535156 284.488281 82.230469 286.207031 76.496094 C 287.355469 73.058594 287.925781 69.046875 289.074219 65.605469 L 289.644531 63.3125 C 290.21875 62.167969 290.21875 61.023438 290.21875 59.875 C 290.21875 53.570312 285.636719 47.265625 279.90625 44.972656 C 278.761719 43.824219 277.042969 42.679688 275.324219 42.105469 C 269.59375 39.8125 263.289062 37.519531 256.414062 35.226562 C 253.550781 34.082031 250.683594 32.933594 248.394531 32.363281 L 246.101562 31.214844 C 243.808594 30.070312 241.519531 29.496094 239.226562 28.921875 C 236.933594 28.351562 234.640625 27.203125 231.777344 26.058594 C 226.621094 23.765625 220.320312 25.484375 215.734375 30.070312 L 213.441406 31.789062 C 211.152344 33.507812 210.003906 35.800781 208.859375 38.667969 L 207.714844 40.386719 C 206.566406 43.253906 204.847656 46.117188 203.703125 48.984375 C 202.558594 51.851562 201.410156 55.289062 200.265625 57.582031 C 199.691406 59.875 198.546875 62.742188 197.398438 65.035156 L 196.253906 68.472656 C 195.109375 71.339844 194.535156 74.203125 193.960938 76.496094 C 193.390625 77.644531 193.390625 78.789062 192.816406 79.9375 C 191.671875 83.949219 190.523438 87.960938 189.378906 91.972656 C 187.660156 97.132812 185.941406 102.863281 184.796875 108.023438 C 183.648438 112.609375 182.503906 117.195312 181.355469 121.78125 C 180.210938 127.511719 178.492188 133.242188 176.773438 138.976562 C 173.335938 149.867188 172.191406 161.328125 170.472656 172.21875 L 169.898438 175.660156 C 169.324219 178.523438 169.324219 181.964844 168.753906 184.832031 C 167.605469 192.28125 166.460938 200.304688 165.886719 208.332031 L 165.886719 210.050781 C 165.316406 219.222656 164.167969 228.964844 164.167969 238.136719 C 164.167969 241.003906 164.167969 244.441406 164.167969 247.308594 C 164.167969 253.039062 164.167969 259.34375 163.59375 265.078125 L 163.59375 268.515625 C 163.59375 271.953125 163.023438 275.394531 163.023438 278.832031 C 163.023438 279.40625 163.023438 279.40625 163.023438 279.980469 C 163.023438 284.566406 163.023438 289.722656 163.59375 295.457031 C 164.167969 305.199219 165.316406 314.371094 165.886719 324.113281 L 166.460938 328.128906 C 167.035156 335.578125 167.605469 341.882812 168.753906 348.1875 C 169.898438 352.773438 170.472656 357.359375 171.617188 362.519531 L 173.335938 365.957031 C 173.910156 368.824219 174.480469 371.117188 175.054688 373.980469 C 176.773438 383.152344 179.066406 392.898438 181.355469 402.066406 C 184.222656 411.8125 187.085938 421.558594 189.953125 431.300781 C 190.523438 433.019531 191.097656 434.167969 191.671875 435.886719 C 199.117188 458.8125 205.996094 476.582031 214.015625 492.632812 C 218.597656 502.949219 223.757812 512.121094 228.914062 520.71875 C 230.058594 523.011719 231.777344 525.304688 232.921875 527.597656 C 234.070312 529.890625 235.214844 531.609375 236.359375 533.902344 C 239.226562 538.488281 242.089844 542.5 244.382812 546.511719 L 245.527344 548.230469 L 244.382812 546.511719 C 248.394531 552.816406 252.976562 558.546875 256.988281 564.28125 C 259.28125 567.144531 261.570312 570.011719 263.289062 572.878906 C 269.59375 581.476562 276.46875 590.074219 284.488281 599.246094 C 291.363281 607.269531 299.386719 614.722656 308.554688 623.320312 C 314.285156 629.050781 322.304688 635.929688 330.328125 643.378906 C 336.628906 649.113281 344.078125 654.84375 353.246094 661.722656 C 358.402344 665.734375 363.558594 669.171875 368.714844 672.613281 L 375.015625 675.480469 L 376.734375 676.625 C 379.601562 678.917969 383.039062 680.636719 385.902344 682.929688 C 389.339844 685.222656 393.351562 686.941406 396.789062 689.234375 L 398.507812 689.808594 L 401.371094 691.527344 C 405.382812 693.820312 409.96875 696.113281 414.550781 698.40625 C 415.125 698.980469 415.695312 698.980469 416.84375 699.550781 C 419.132812 700.699219 420.851562 701.84375 423.144531 702.417969 L 423.71875 702.417969 C 426.582031 703.566406 429.449219 705.285156 432.3125 707.003906 C 438.613281 710.441406 444.34375 713.308594 451.21875 716.175781 C 455.804688 717.894531 460.386719 719.042969 464.398438 720.761719 C 468.410156 721.90625 471.847656 723.054688 475.855469 724.773438 C 481.585938 727.066406 487.890625 728.210938 493.617188 729.929688 L 495.910156 730.503906 C 498.777344 731.078125 501.066406 732.222656 503.933594 732.796875 C 509.089844 734.515625 514.820312 735.664062 520.546875 736.808594 C 522.265625 736.808594 523.414062 737.382812 525.132812 737.382812 C 526.277344 737.382812 527.421875 737.957031 528.570312 737.957031 L 529.714844 738.53125 C 531.433594 739.101562 533.152344 739.101562 534.300781 739.675781 C 541.746094 741.394531 549.769531 742.542969 557.789062 743.6875 C 561.226562 744.261719 564.664062 744.261719 568.101562 744.261719 C 569.25 744.261719 570.394531 744.261719 571.542969 744.261719 L 572.6875 744.261719 C 573.261719 744.261719 573.832031 744.261719 574.980469 744.261719 C 578.417969 744.261719 581.28125 743.6875 584.71875 742.542969 C 586.4375 741.96875 588.15625 740.820312 589.304688 739.101562 C 589.875 738.53125 590.449219 738.53125 590.449219 737.957031 C 591.59375 736.808594 592.167969 735.664062 593.3125 734.515625 C 595.03125 732.222656 595.605469 729.929688 595.605469 727.066406 C 595.605469 725.917969 596.179688 724.773438 596.75 723.625 C 597.324219 721.90625 597.898438 720.761719 597.898438 719.042969 C 598.46875 715.601562 599.617188 712.164062 600.1875 708.722656 L 600.761719 706.429688 C 601.335938 704.710938 601.90625 702.417969 601.90625 700.699219 C 601.90625 699.550781 602.480469 698.980469 602.480469 697.832031 L 602.480469 694.394531 C 602.480469 693.820312 603.054688 692.675781 603.054688 692.101562 C 603.625 689.234375 604.773438 686.941406 604.773438 684.078125 C 604.773438 679.492188 603.625 675.480469 600.761719 672.613281 C 598.46875 670.320312 596.179688 668.601562 592.742188 668.027344 C 591.59375 667.453125 590.449219 666.882812 589.304688 666.882812 C 585.292969 666.308594 581.855469 665.734375 577.84375 665.160156 C 576.125 665.160156 574.40625 664.589844 572.113281 664.589844 C 566.382812 663.441406 560.65625 662.296875 553.78125 660.574219 C 548.050781 658.855469 541.746094 657.710938 533.152344 655.417969 C 526.277344 653.699219 519.402344 651.40625 513.097656 649.113281 C 511.378906 648.539062 510.234375 647.964844 508.515625 647.394531 L 501.640625 644.527344 C 494.765625 641.660156 487.890625 638.792969 480.441406 635.929688 C 475.855469 634.210938 471.273438 631.917969 466.691406 629.625 C 462.105469 627.332031 457.523438 624.464844 452.9375 622.171875 L 451.21875 621.027344 C 443.199219 616.441406 434.03125 611.28125 426.011719 606.125 C 424.292969 604.976562 420.851562 603.257812 417.414062 600.964844 Z M 417.414062 600.964844 " fill-opacity="1" fill-rule="nonzero"/></g></svg>